# xmcd
#
# Track frame offsets:
#	150
#	12045
#	25723
#	39291
#	49681
#	61323
#	72499
#	84762
#	96367
#	108013
#
# Disc length: 1566 seconds
#
# Revision: 1
# Processed by: cddbd v1.5.2PL0 Copyright (c) Steve Scherf et al.
# Submitted via: audiograbber 1.83.01
#
DISCID=6c061c0a
DTITLE=Jean Shepard - Star Of The Grand Ole Opry - First Generation
DYEAR=1981
DGENRE=Country
TTITLE0=Too Many Rivers
TTITLE1=What Would I Do
TTITLE2=The Palm Of Your Hand
TTITLE3=Leavin' Fever
TTITLE4=All Alone In Austin
TTITLE5=Slippin' Away
TTITLE6=Then He Touched Me
TTITLE7=Seven Lonely Days
TTITLE8=A Dear John Letter
TTITLE9=Second Fiddle (To An Old Guitar)
EXTD=
EXTT0=
EXTT1=
EXTT2=
EXTT3=
EXTT4=
EXTT5=
EXTT6=
EXTT7=
EXTT8=
EXTT9=
PLAYORDER=
